<mxfile host="app.diagrams.net" modified="2024-02-14T13:23:07.193Z" agent="Mozilla/5.0 (Macintosh; Intel Mac OS X 10_15_7) AppleWebKit/605.1.15 (KHTML, like Gecko) Version/17.3.1 Safari/605.1.15" etag="quV8FCVoZsXcB4nfjDzk" version="23.1.3" type="github">
  <diagram name="Page-1" id="NSF7K2qSmASbsmWNM3FZ">
    <mxGraphModel dx="1242" dy="1996" grid="1" gridSize="10" guides="1" tooltips="1" connect="1" arrows="1" fold="1" page="1" pageScale="1" pageWidth="827" pageHeight="1169" math="0" shadow="0">
      <root>
        <mxCell id="0" />
        <mxCell id="1" parent="0" />
        <mxCell id="F2_17KbJ8ExGYCIDA01D-46" style="edgeStyle=orthogonalEdgeStyle;rounded=0;orthogonalLoop=1;jettySize=auto;html=1;exitX=0.5;exitY=1;exitDx=0;exitDy=0;" parent="1" source="F2_17KbJ8ExGYCIDA01D-1" target="F2_17KbJ8ExGYCIDA01D-8" edge="1">
          <mxGeometry relative="1" as="geometry" />
        </mxCell>
        <mxCell id="F2_17KbJ8ExGYCIDA01D-1" value="New Patch Release Package Repo&lt;br&gt;(GitLab)" style="rounded=1;whiteSpace=wrap;html=1;" parent="1" vertex="1">
          <mxGeometry y="-50" width="800" height="60" as="geometry" />
        </mxCell>
        <mxCell id="F2_17KbJ8ExGYCIDA01D-47" style="edgeStyle=orthogonalEdgeStyle;rounded=0;orthogonalLoop=1;jettySize=auto;html=1;exitX=0.5;exitY=1;exitDx=0;exitDy=0;entryX=0.5;entryY=0;entryDx=0;entryDy=0;" parent="1" source="F2_17KbJ8ExGYCIDA01D-2" target="F2_17KbJ8ExGYCIDA01D-9" edge="1">
          <mxGeometry relative="1" as="geometry" />
        </mxCell>
        <mxCell id="F2_17KbJ8ExGYCIDA01D-2" value="Image Build" style="rounded=1;whiteSpace=wrap;html=1;" parent="1" vertex="1">
          <mxGeometry y="730" width="800" height="60" as="geometry" />
        </mxCell>
        <mxCell id="F2_17KbJ8ExGYCIDA01D-3" value="Publish" style="rounded=1;whiteSpace=wrap;html=1;" parent="1" vertex="1">
          <mxGeometry y="1000" width="800" height="60" as="geometry" />
        </mxCell>
        <mxCell id="F2_17KbJ8ExGYCIDA01D-37" style="edgeStyle=orthogonalEdgeStyle;rounded=0;orthogonalLoop=1;jettySize=auto;html=1;exitX=0.5;exitY=1;exitDx=0;exitDy=0;entryX=1;entryY=0;entryDx=0;entryDy=0;" parent="1" source="F2_17KbJ8ExGYCIDA01D-6" target="F2_17KbJ8ExGYCIDA01D-27" edge="1">
          <mxGeometry relative="1" as="geometry">
            <Array as="points">
              <mxPoint x="370" y="370" />
            </Array>
          </mxGeometry>
        </mxCell>
        <mxCell id="F2_17KbJ8ExGYCIDA01D-6" value="Add package entry in packages/MAJOR.MINOR.yaml file in&lt;br&gt;&amp;nbsp;PR for&amp;nbsp;&lt;br&gt;gardenlinux-package-build repo" style="rounded=1;whiteSpace=wrap;html=1;" parent="1" vertex="1">
          <mxGeometry x="262" y="230" width="216" height="80" as="geometry" />
        </mxCell>
        <mxCell id="F2_17KbJ8ExGYCIDA01D-20" style="edgeStyle=orthogonalEdgeStyle;rounded=0;orthogonalLoop=1;jettySize=auto;html=1;exitX=1;exitY=0.5;exitDx=0;exitDy=0;entryX=0;entryY=0.5;entryDx=0;entryDy=0;" parent="1" source="F2_17KbJ8ExGYCIDA01D-8" target="F2_17KbJ8ExGYCIDA01D-12" edge="1">
          <mxGeometry relative="1" as="geometry" />
        </mxCell>
        <mxCell id="F2_17KbJ8ExGYCIDA01D-8" value="Requirement for new &lt;br&gt;Package Version" style="rounded=1;whiteSpace=wrap;html=1;" parent="1" vertex="1">
          <mxGeometry x="50" y="90" width="216" height="80" as="geometry" />
        </mxCell>
        <mxCell id="F2_17KbJ8ExGYCIDA01D-48" style="edgeStyle=orthogonalEdgeStyle;rounded=0;orthogonalLoop=1;jettySize=auto;html=1;exitX=1;exitY=0.5;exitDx=0;exitDy=0;entryX=0;entryY=0.5;entryDx=0;entryDy=0;" parent="1" source="F2_17KbJ8ExGYCIDA01D-9" target="F2_17KbJ8ExGYCIDA01D-10" edge="1">
          <mxGeometry relative="1" as="geometry" />
        </mxCell>
        <mxCell id="F2_17KbJ8ExGYCIDA01D-9" value="update/create rel-branch in&amp;nbsp;&lt;br&gt;gardenlinux/gardenlinux" style="rounded=1;whiteSpace=wrap;html=1;" parent="1" vertex="1">
          <mxGeometry x="10" y="840" width="216" height="80" as="geometry" />
        </mxCell>
        <mxCell id="F2_17KbJ8ExGYCIDA01D-10" value="Trigger nightly for rel-branch an set MAJOR.MINOR version as input&lt;br&gt;" style="rounded=1;whiteSpace=wrap;html=1;" parent="1" vertex="1">
          <mxGeometry x="306" y="840" width="216" height="80" as="geometry" />
        </mxCell>
        <mxCell id="F2_17KbJ8ExGYCIDA01D-14" value="NO" style="edgeStyle=orthogonalEdgeStyle;rounded=0;orthogonalLoop=1;jettySize=auto;html=1;exitX=1;exitY=0.5;exitDx=0;exitDy=0;" parent="1" source="F2_17KbJ8ExGYCIDA01D-12" edge="1">
          <mxGeometry relative="1" as="geometry">
            <mxPoint x="580" y="130" as="targetPoint" />
          </mxGeometry>
        </mxCell>
        <mxCell id="F2_17KbJ8ExGYCIDA01D-21" value="YES" style="edgeStyle=orthogonalEdgeStyle;rounded=0;orthogonalLoop=1;jettySize=auto;html=1;exitX=0.5;exitY=1;exitDx=0;exitDy=0;" parent="1" source="F2_17KbJ8ExGYCIDA01D-12" edge="1">
          <mxGeometry relative="1" as="geometry">
            <mxPoint x="370" y="230" as="targetPoint" />
          </mxGeometry>
        </mxCell>
        <mxCell id="F2_17KbJ8ExGYCIDA01D-12" value="mirrored?" style="rhombus;whiteSpace=wrap;html=1;" parent="1" vertex="1">
          <mxGeometry x="290" y="90" width="160" height="80" as="geometry" />
        </mxCell>
        <mxCell id="F2_17KbJ8ExGYCIDA01D-25" style="edgeStyle=orthogonalEdgeStyle;rounded=0;orthogonalLoop=1;jettySize=auto;html=1;exitX=0.5;exitY=1;exitDx=0;exitDy=0;entryX=0.5;entryY=0;entryDx=0;entryDy=0;" parent="1" source="F2_17KbJ8ExGYCIDA01D-16" target="F2_17KbJ8ExGYCIDA01D-18" edge="1">
          <mxGeometry relative="1" as="geometry" />
        </mxCell>
        <mxCell id="F2_17KbJ8ExGYCIDA01D-16" value="- Build new Version&lt;br&gt;- Fix Patches if necessary&lt;br&gt;&amp;nbsp;- set git tag to trigger build of release version&amp;nbsp;" style="rounded=1;whiteSpace=wrap;html=1;" parent="1" vertex="1">
          <mxGeometry x="577" y="90" width="216" height="80" as="geometry" />
        </mxCell>
        <mxCell id="F2_17KbJ8ExGYCIDA01D-19" value="NO" style="edgeStyle=orthogonalEdgeStyle;rounded=0;orthogonalLoop=1;jettySize=auto;html=1;exitX=1;exitY=0.5;exitDx=0;exitDy=0;entryX=1;entryY=0.5;entryDx=0;entryDy=0;" parent="1" source="F2_17KbJ8ExGYCIDA01D-18" target="F2_17KbJ8ExGYCIDA01D-16" edge="1">
          <mxGeometry relative="1" as="geometry">
            <Array as="points">
              <mxPoint x="810" y="270" />
              <mxPoint x="810" y="130" />
            </Array>
          </mxGeometry>
        </mxCell>
        <mxCell id="F2_17KbJ8ExGYCIDA01D-36" value="YES" style="edgeStyle=orthogonalEdgeStyle;rounded=0;orthogonalLoop=1;jettySize=auto;html=1;exitX=0;exitY=0.5;exitDx=0;exitDy=0;entryX=1;entryY=0.5;entryDx=0;entryDy=0;" parent="1" source="F2_17KbJ8ExGYCIDA01D-18" target="F2_17KbJ8ExGYCIDA01D-6" edge="1">
          <mxGeometry relative="1" as="geometry" />
        </mxCell>
        <mxCell id="F2_17KbJ8ExGYCIDA01D-18" value="Build successful?" style="rhombus;whiteSpace=wrap;html=1;" parent="1" vertex="1">
          <mxGeometry x="600" y="230" width="170" height="80" as="geometry" />
        </mxCell>
        <mxCell id="F2_17KbJ8ExGYCIDA01D-28" value="NO" style="edgeStyle=orthogonalEdgeStyle;rounded=0;orthogonalLoop=1;jettySize=auto;html=1;exitX=0;exitY=0.5;exitDx=0;exitDy=0;entryX=0.5;entryY=1;entryDx=0;entryDy=0;" parent="1" source="F2_17KbJ8ExGYCIDA01D-27" target="F2_17KbJ8ExGYCIDA01D-29" edge="1">
          <mxGeometry x="-0.0029" relative="1" as="geometry">
            <mxPoint x="120" y="500" as="targetPoint" />
            <mxPoint x="1" as="offset" />
          </mxGeometry>
        </mxCell>
        <mxCell id="F2_17KbJ8ExGYCIDA01D-43" value="YES" style="edgeStyle=orthogonalEdgeStyle;rounded=0;orthogonalLoop=1;jettySize=auto;html=1;exitX=0.5;exitY=1;exitDx=0;exitDy=0;entryX=0.5;entryY=0;entryDx=0;entryDy=0;" parent="1" source="F2_17KbJ8ExGYCIDA01D-27" target="F2_17KbJ8ExGYCIDA01D-42" edge="1">
          <mxGeometry relative="1" as="geometry" />
        </mxCell>
        <mxCell id="F2_17KbJ8ExGYCIDA01D-27" value="diff pipeline&lt;br&gt;&amp;nbsp;shows package?" style="rhombus;whiteSpace=wrap;html=1;" parent="1" vertex="1">
          <mxGeometry x="132" y="350" width="160" height="80" as="geometry" />
        </mxCell>
        <mxCell id="F2_17KbJ8ExGYCIDA01D-38" style="edgeStyle=orthogonalEdgeStyle;rounded=0;orthogonalLoop=1;jettySize=auto;html=1;exitX=1;exitY=0.5;exitDx=0;exitDy=0;entryX=0;entryY=0;entryDx=0;entryDy=0;" parent="1" source="F2_17KbJ8ExGYCIDA01D-29" target="F2_17KbJ8ExGYCIDA01D-27" edge="1">
          <mxGeometry relative="1" as="geometry" />
        </mxCell>
        <mxCell id="F2_17KbJ8ExGYCIDA01D-29" value="Debug" style="rounded=1;whiteSpace=wrap;html=1;" parent="1" vertex="1">
          <mxGeometry x="30" y="230" width="116" height="80" as="geometry" />
        </mxCell>
        <mxCell id="F2_17KbJ8ExGYCIDA01D-34" style="edgeStyle=orthogonalEdgeStyle;rounded=0;orthogonalLoop=1;jettySize=auto;html=1;exitX=1;exitY=0.5;exitDx=0;exitDy=0;entryX=0;entryY=0.5;entryDx=0;entryDy=0;" parent="1" source="F2_17KbJ8ExGYCIDA01D-33" target="F2_17KbJ8ExGYCIDA01D-35" edge="1">
          <mxGeometry relative="1" as="geometry">
            <mxPoint x="410" y="695" as="targetPoint" />
          </mxGeometry>
        </mxCell>
        <mxCell id="F2_17KbJ8ExGYCIDA01D-33" value="Merge PR to gardenlinux-package-build repo" style="rounded=1;whiteSpace=wrap;html=1;" parent="1" vertex="1">
          <mxGeometry x="98" y="590" width="224" height="80" as="geometry" />
        </mxCell>
        <mxCell id="F2_17KbJ8ExGYCIDA01D-39" style="edgeStyle=orthogonalEdgeStyle;rounded=0;orthogonalLoop=1;jettySize=auto;html=1;exitX=0.5;exitY=1;exitDx=0;exitDy=0;entryX=0.5;entryY=0;entryDx=0;entryDy=0;" parent="1" source="F2_17KbJ8ExGYCIDA01D-35" target="F2_17KbJ8ExGYCIDA01D-2" edge="1">
          <mxGeometry relative="1" as="geometry" />
        </mxCell>
        <mxCell id="F2_17KbJ8ExGYCIDA01D-35" value="- wait for package repo pipelines on main branch&amp;nbsp;&lt;br&gt;- additionally wait ~30mins after successful pipelines for the caching of S3 buckets of repo to invalidate&lt;br&gt;&amp;nbsp;" style="rounded=1;whiteSpace=wrap;html=1;" parent="1" vertex="1">
          <mxGeometry x="490" y="575" width="224" height="110" as="geometry" />
        </mxCell>
        <mxCell id="F2_17KbJ8ExGYCIDA01D-44" value="NO" style="edgeStyle=orthogonalEdgeStyle;rounded=0;orthogonalLoop=1;jettySize=auto;html=1;exitX=0.5;exitY=1;exitDx=0;exitDy=0;entryX=0.5;entryY=0;entryDx=0;entryDy=0;" parent="1" source="F2_17KbJ8ExGYCIDA01D-42" target="F2_17KbJ8ExGYCIDA01D-33" edge="1">
          <mxGeometry relative="1" as="geometry" />
        </mxCell>
        <mxCell id="F2_17KbJ8ExGYCIDA01D-45" value="YES" style="edgeStyle=orthogonalEdgeStyle;rounded=0;orthogonalLoop=1;jettySize=auto;html=1;exitX=0;exitY=0.5;exitDx=0;exitDy=0;entryX=0;entryY=0.5;entryDx=0;entryDy=0;" parent="1" source="F2_17KbJ8ExGYCIDA01D-42" target="F2_17KbJ8ExGYCIDA01D-8" edge="1">
          <mxGeometry relative="1" as="geometry">
            <Array as="points">
              <mxPoint x="20" y="510" />
              <mxPoint x="20" y="130" />
            </Array>
          </mxGeometry>
        </mxCell>
        <mxCell id="F2_17KbJ8ExGYCIDA01D-42" value="more packages?" style="rhombus;whiteSpace=wrap;html=1;" parent="1" vertex="1">
          <mxGeometry x="130" y="470" width="160" height="80" as="geometry" />
        </mxCell>
      </root>
    </mxGraphModel>
  </diagram>
</mxfile>
